<svg width="125" height="125" viewBox="0 0 125 125" fill="none" xmlns="http://www.w3.org/2000/svg">
<g opacity="0.1" clip-path="url(#clip0)">
<path d="M18.4795 53.7324L8.61626 90.5425C7.70884 93.929 9.72701 97.4156 13.1074 98.3214L43.7825 106.541L55.2896 63.5957L18.4795 53.7324Z" fill="#780001"/>
<path d="M110.945 52.2066L91.5341 47.0054C93.1815 46.4276 94.631 45.8034 95.6922 45.1803C101.976 41.5314 104.146 33.4332 100.528 27.1311C97.0173 20.9956 88.6336 18.7624 82.5345 22.3096C79.1568 24.2649 69.1902 33.2396 68.221 40.7586L67.7793 40.6403C70.6933 33.6423 66.5494 20.8867 64.608 17.5062C61.0935 11.383 52.7131 9.13749 46.614 12.6847C40.336 16.3353 38.1661 24.4335 41.7716 30.7323C42.3852 31.8041 43.3284 33.0695 44.4662 34.3936L25.055 29.1924C21.6746 28.2866 18.1819 30.3031 17.2762 33.6835L14.8103 42.886C14.3566 44.5793 15.3626 46.3218 17.0559 46.7755L56.9335 57.4606L60.2213 45.1906L72.4913 48.4784L69.2035 60.7484L109.081 71.4336C110.774 71.8873 112.517 70.8812 112.971 69.188L115.436 59.9855C116.342 56.6051 114.332 53.114 110.945 52.2066ZM61.5574 38.7562C61.5574 38.7562 61.2455 38.8896 60.3682 38.6545C56.1289 37.5186 49.2171 30.9454 47.2864 27.5743C45.4095 24.2965 46.5405 20.0756 49.8048 18.1754C51.3855 17.2576 53.22 17.0127 54.9746 17.4828C56.7231 17.9513 58.1893 19.0806 59.0993 20.6659C62.1198 25.9334 63.383 37.6606 61.5574 38.7562ZM75.626 42.7428C74.7548 42.5094 74.5497 42.244 74.5514 42.2379C73.5181 40.3763 80.4757 30.8519 85.7253 27.8003C88.8668 25.9658 93.1952 27.1125 95.0198 30.2908C96.9028 33.5702 95.7718 37.7911 92.5014 39.6896C89.1438 41.6437 79.8714 43.8804 75.626 42.7428Z" fill="#780001"/>
<path d="M67.5596 66.8834L56.0525 109.829L86.7275 118.048C90.1141 118.955 93.599 116.943 94.5064 113.557L104.37 76.7467L67.5596 66.8834Z" fill="#780001"/>
</g>
<defs>
<clipPath id="clip0">
<rect width="101.623" height="101.623" fill="white" transform="translate(26.3018) rotate(15)"/>
</clipPath>
</defs>
</svg>
