<svg width="73" height="73" viewBox="0 0 73 73" fill="none" xmlns="http://www.w3.org/2000/svg">
<g opacity="0.1" clip-path="url(#clip0)">
<path d="M11.709 44.7245L17.4568 66.1758C17.9856 68.1493 20.0201 69.3208 21.99 68.793L39.8661 64.0031L33.1603 38.9766L11.709 44.7245Z" fill="#780001"/>
<path d="M57.9299 17.012L46.6179 20.0431C47.281 19.2714 47.8307 18.5341 48.1847 17.9104C50.293 14.2378 49.0284 9.51853 45.3663 7.39212C41.8066 5.31875 36.9247 6.6345 34.8802 10.2019C33.7453 12.1728 31.3304 19.6062 33.0321 23.6834L32.7747 23.7523C32.2063 19.3715 26.3983 14.1415 24.4335 13.0011C20.8756 10.9348 15.9919 12.2434 13.9474 15.8108C11.8427 19.4824 13.1072 24.2017 16.7622 26.33C17.3842 26.6922 18.2289 27.0559 19.1889 27.3926L7.87695 30.4237C5.90701 30.9515 4.73187 32.9869 5.25971 34.9569L6.69668 40.3197C6.96108 41.3064 7.97651 41.8927 8.96327 41.6283L32.2021 35.4015L30.2862 28.251L37.4366 26.3351L39.3526 33.4855L62.5914 27.2587C63.5782 26.9943 64.1645 25.9788 63.9001 24.9921L62.4631 19.6293C61.9353 17.6593 59.9034 16.4832 57.9299 17.012ZM29.0857 24.6144C29.0857 24.6144 28.9671 24.7726 28.4559 24.9096C25.9854 25.5715 20.5819 24.2681 18.6252 23.1293C16.7229 22.022 16.0638 19.5623 17.1576 17.6521C17.6879 16.7283 18.5424 16.0702 19.5649 15.7962C20.5838 15.5232 21.6528 15.6659 22.574 16.2008C25.6332 17.9791 29.6878 23.5295 29.0857 24.6144ZM37.3474 22.5271C36.8397 22.6631 36.6589 22.5889 36.658 22.5854C35.5941 21.947 36.3303 15.1128 38.0904 12.0432C39.1413 10.202 41.66 9.51948 43.5069 10.5918C45.4127 11.6982 46.0718 14.158 44.9745 16.0691C43.8493 18.0336 39.8215 21.8642 37.3474 22.5271Z" fill="#780001"/>
<path d="M40.3105 37.0607L47.0164 62.0872L64.8924 57.2973C66.8659 56.7685 68.0385 54.7376 67.5097 52.7641L61.7618 31.3128L40.3105 37.0607Z" fill="#780001"/>
</g>
<defs>
<clipPath id="clip0">
<rect width="59.2213" height="59.2213" fill="white" transform="translate(0 15.3276) rotate(-15)"/>
</clipPath>
</defs>
</svg>
