<svg width="82" height="82" viewBox="0 0 82 82" fill="none" xmlns="http://www.w3.org/2000/svg">
<g opacity="0.1" clip-path="url(#clip0)">
<path d="M17.7549 28.7151L6.08853 47.6335C5.01523 49.374 5.55987 51.6596 7.2972 52.7309L23.0625 62.4529L36.6733 40.3814L17.7549 28.7151Z" fill="#780001"/>
<path d="M69.6755 43.3243L59.6992 37.1723C60.7163 37.1249 61.6306 37.0185 62.3277 36.8478C66.4492 35.8598 69.0158 31.6978 68.0481 27.5715C67.1122 23.5562 62.8012 20.9064 58.8002 21.8686C56.586 22.3963 49.5164 25.7443 47.7175 29.7836L47.4905 29.6436C50.2889 26.2207 50.1064 18.4006 49.5869 16.1871C48.6471 12.1781 44.34 9.52202 40.339 10.4842C36.2207 11.4741 33.6541 15.6362 34.6154 19.7586C34.7791 20.4601 35.0945 21.3248 35.5089 22.2549L25.5326 16.1028C23.7952 15.0315 21.5065 15.5742 20.4351 17.3115L17.5185 22.0411C16.9819 22.9114 17.2526 24.0532 18.1228 24.5898L38.6178 37.2284L42.5066 30.9223L48.8127 34.811L44.9239 41.1172L65.4188 53.7557C66.2891 54.2924 67.4309 54.0216 67.9676 53.1514L70.8842 48.4218C71.9555 46.6844 71.416 44.3976 69.6755 43.3243ZM44.3291 27.5504C44.3291 27.5504 44.1325 27.5728 43.6816 27.2948C41.5028 25.9512 38.74 21.1226 38.2249 18.9162C37.7243 16.7709 39.0621 14.6016 41.2037 14.0857C42.2404 13.8372 43.3064 14.007 44.2082 14.5631C45.1068 15.1173 45.7372 15.9935 45.9806 17.0314C46.7875 20.4797 45.5324 27.2436 44.3291 27.5504ZM51.5233 32.1305C51.0755 31.8544 51.0053 31.6718 51.0073 31.6686C50.7412 30.4557 56.2215 26.2973 59.6649 25.4701C61.727 24.9704 63.9538 26.3349 64.4418 28.4158C64.9456 30.5631 63.6078 32.7324 61.463 33.2463C59.2602 33.7767 53.7052 33.476 51.5233 32.1305Z" fill="#780001"/>
<path d="M42.9795 44.2702L29.3687 66.3417L45.1341 76.0637C46.8746 77.137 49.1582 76.5955 50.2315 74.855L61.8979 55.9366L42.9795 44.2702Z" fill="#780001"/>
</g>
<defs>
<clipPath id="clip0">
<rect width="59.2702" height="59.2702" fill="white" transform="translate(31.1104) rotate(31.6608)"/>
</clipPath>
</defs>
</svg>
