<svg width="16" height="16" viewBox="0 0 16 16" fill="none" xmlns="http://www.w3.org/2000/svg">
<path d="M3.64167 2.95526C4.85138 1.90703 6.399 1.33103 7.99967 1.33326C11.6817 1.33326 14.6663 4.31793 14.6663 7.99993C14.6663 9.42393 14.2197 10.7439 13.4597 11.8266L11.333 7.99993H13.333C13.3331 6.95434 13.0258 5.93179 12.4495 5.05943C11.8731 4.18706 11.053 3.50336 10.0911 3.09334C9.12929 2.68332 8.06815 2.56506 7.03965 2.75327C6.01114 2.94148 5.06064 3.42786 4.30634 4.15193L3.64167 2.95526ZM12.3577 13.0446C11.148 14.0928 9.60035 14.6688 7.99967 14.6666C4.31767 14.6666 1.33301 11.6819 1.33301 7.99993C1.33301 6.57593 1.77967 5.25593 2.53967 4.17326L4.66634 7.99993H2.66634C2.66626 9.04551 2.97351 10.0681 3.5499 10.9404C4.12629 11.8128 4.94639 12.4965 5.90822 12.9065C6.87006 13.3165 7.9312 13.4348 8.9597 13.2466C9.98821 13.0584 10.9387 12.572 11.693 11.8479L12.3577 13.0446Z" fill="#4F4F4F"/>
</svg>
