<svg width="16" height="16" viewBox="0 0 16 16" fill="none" xmlns="http://www.w3.org/2000/svg">
<path d="M13.3333 1.33331C13.7013 1.33331 14 1.63198 14 1.99998V4.50465L12.6667 5.83798V2.66665H3.33333V13.3333H12.6667V11.4946L14 10.1613V14C14 14.368 13.7013 14.6666 13.3333 14.6666H2.66667C2.29867 14.6666 2 14.368 2 14V1.99998C2 1.63198 2.29867 1.33331 2.66667 1.33331H13.3333ZM14.5187 5.87198L15.4613 6.81465L10.276 12L9.332 11.9986L9.33333 11.0573L14.5187 5.87198ZM8.66667 7.99998V9.33331H5.33333V7.99998H8.66667ZM10.6667 5.33331V6.66665H5.33333V5.33331H10.6667Z" fill="#780001"/>
</svg>
