<svg width="16" height="16" viewBox="0 0 16 16" fill="none" xmlns="http://www.w3.org/2000/svg">
<path d="M8.00016 1.3335C9.8115 1.3335 10.0375 1.34016 10.7482 1.3735C11.4582 1.40683 11.9415 1.51816 12.3668 1.6835C12.8068 1.85283 13.1775 2.08216 13.5482 2.45216C13.8872 2.78543 14.1495 3.18856 14.3168 3.6335C14.4815 4.05816 14.5935 4.54216 14.6268 5.25216C14.6582 5.96283 14.6668 6.18883 14.6668 8.00016C14.6668 9.8115 14.6602 10.0375 14.6268 10.7482C14.5935 11.4582 14.4815 11.9415 14.3168 12.3668C14.1499 12.812 13.8876 13.2152 13.5482 13.5482C13.2148 13.887 12.8117 14.1493 12.3668 14.3168C11.9422 14.4815 11.4582 14.5935 10.7482 14.6268C10.0375 14.6582 9.8115 14.6668 8.00016 14.6668C6.18883 14.6668 5.96283 14.6602 5.25216 14.6268C4.54216 14.5935 4.05883 14.4815 3.6335 14.3168C3.18838 14.1498 2.78518 13.8875 2.45216 13.5482C2.1131 13.215 1.85078 12.8118 1.6835 12.3668C1.51816 11.9422 1.40683 11.4582 1.3735 10.7482C1.34216 10.0375 1.3335 9.8115 1.3335 8.00016C1.3335 6.18883 1.34016 5.96283 1.3735 5.25216C1.40683 4.5415 1.51816 4.05883 1.6835 3.6335C1.85032 3.18828 2.1127 2.78504 2.45216 2.45216C2.78528 2.11298 3.18845 1.85065 3.6335 1.6835C4.05883 1.51816 4.5415 1.40683 5.25216 1.3735C5.96283 1.34216 6.18883 1.3335 8.00016 1.3335ZM8.00016 4.66683C7.11611 4.66683 6.26826 5.01802 5.64314 5.64314C5.01802 6.26826 4.66683 7.11611 4.66683 8.00016C4.66683 8.88422 5.01802 9.73206 5.64314 10.3572C6.26826 10.9823 7.11611 11.3335 8.00016 11.3335C8.88422 11.3335 9.73206 10.9823 10.3572 10.3572C10.9823 9.73206 11.3335 8.88422 11.3335 8.00016C11.3335 7.11611 10.9823 6.26826 10.3572 5.64314C9.73206 5.01802 8.88422 4.66683 8.00016 4.66683ZM12.3335 4.50016C12.3335 4.27915 12.2457 4.06719 12.0894 3.91091C11.9331 3.75463 11.7212 3.66683 11.5002 3.66683C11.2791 3.66683 11.0672 3.75463 10.9109 3.91091C10.7546 4.06719 10.6668 4.27915 10.6668 4.50016C10.6668 4.72118 10.7546 4.93314 10.9109 5.08942C11.0672 5.2457 11.2791 5.3335 11.5002 5.3335C11.7212 5.3335 11.9331 5.2457 12.0894 5.08942C12.2457 4.93314 12.3335 4.72118 12.3335 4.50016ZM8.00016 6.00016C8.5306 6.00016 9.0393 6.21088 9.41438 6.58595C9.78945 6.96102 10.0002 7.46973 10.0002 8.00016C10.0002 8.5306 9.78945 9.0393 9.41438 9.41438C9.0393 9.78945 8.5306 10.0002 8.00016 10.0002C7.46973 10.0002 6.96102 9.78945 6.58595 9.41438C6.21088 9.0393 6.00016 8.5306 6.00016 8.00016C6.00016 7.46973 6.21088 6.96102 6.58595 6.58595C6.96102 6.21088 7.46973 6.00016 8.00016 6.00016Z" fill="white"/>
</svg>
