<svg width="56" height="72" viewBox="0 0 56 72" fill="none" xmlns="http://www.w3.org/2000/svg">
<path d="M1.16634 31.4305H6.77094V21.4627C6.77094 9.74249 16.3599 -0.043728 28.0799 0.000146959C32.9863 0.0185688 37.6936 1.71886 41.4633 4.81458C41.9378 5.20411 41.9901 5.91187 41.576 6.3651C41.1933 6.78374 40.5497 6.83142 40.1115 6.47128C36.7209 3.68508 32.4861 2.1548 28.0718 2.13835C17.5321 2.09883 8.90914 10.8993 8.90914 21.4389V31.4303H14.041V21.4062C14.041 13.721 20.1778 7.34455 27.8625 7.27045C35.6225 7.19577 41.9593 13.4866 41.9593 21.2296V25.4434H47.0911V21.2296C47.0911 17.1105 45.7516 13.094 43.3007 9.81041C42.9611 9.35549 43.0372 8.71494 43.4733 8.35157C43.9447 7.9588 44.6495 8.04233 45.0164 8.5341C47.7407 12.1853 49.2296 16.6505 49.2296 21.2296V26.5124C49.2296 27.1029 48.7509 27.5816 48.1605 27.5816H40.8904C40.3 27.5816 39.8213 27.1029 39.8213 26.5124V21.3804C39.8213 14.8723 34.6249 9.47207 28.1171 9.4085C21.5457 9.34438 16.1794 14.6719 16.1794 21.2296V31.4303H54.8337C55.4241 31.4303 55.9028 31.909 55.9028 32.4995V70.9306C55.9028 71.521 55.4241 71.9997 54.8337 71.9997H19.3404C18.7499 71.9997 18.2714 71.521 18.2714 70.9307V70.9306C18.2714 70.3401 18.7501 69.8615 19.3404 69.8615H53.7645V33.5688H2.2355V69.8617H14.351C14.9415 69.8617 15.4201 70.3404 15.4201 70.9307V70.9308C15.4201 71.5213 14.9414 71.9999 14.351 71.9999H1.16634C0.575855 71.9999 0.097168 71.5212 0.097168 70.9307V32.4996C0.0973053 31.9092 0.575718 31.4305 1.16634 31.4305Z" fill="white"/>
</svg>
