<svg width="92" height="92" viewBox="0 0 92 92" fill="none" xmlns="http://www.w3.org/2000/svg">
<g opacity="0.1">
<path d="M70.3954 66.5621L46 90.9575L21.6047 66.5621C16.7798 61.7372 13.494 55.5899 12.1629 48.8976C10.8317 42.2052 11.515 35.2685 14.1262 28.9644C16.7374 22.6604 21.1594 17.2723 26.8329 13.4814C32.5064 9.69049 39.1766 7.66711 46 7.66711C52.8235 7.66711 59.4937 9.69049 65.1671 13.4814C70.8406 17.2723 75.2626 22.6604 77.8738 28.9644C80.4851 35.2685 81.1683 42.2052 79.8371 48.8976C78.506 55.5899 75.2202 61.7372 70.3954 66.5621ZM46 49.8335C48.0333 49.8335 49.9834 49.0257 51.4212 47.588C52.8589 46.1502 53.6667 44.2001 53.6667 42.1668C53.6667 40.1335 52.8589 38.1834 51.4212 36.7457C49.9834 35.3079 48.0333 34.5001 46 34.5001C43.9667 34.5001 42.0166 35.3079 40.5789 36.7457C39.1411 38.1834 38.3333 40.1335 38.3333 42.1668C38.3333 44.2001 39.1411 46.1502 40.5789 47.588C42.0166 49.0257 43.9667 49.8335 46 49.8335Z" fill="#780001"/>
</g>
</svg>
