<svg width="64" height="64" viewBox="0 0 64 64" fill="none" xmlns="http://www.w3.org/2000/svg">
<g clip-path="url(#clip0)">
<path d="M41.1268 7.90836C40.4836 3.4001 36.5594 0 31.9994 0C29.0668 0 26.2816 1.41515 24.5499 3.78686C24.1962 4.27054 24.302 4.94904 24.7857 5.30275C25.2678 5.65518 25.9479 5.55063 26.301 5.06631C27.6265 3.25264 29.7564 2.16959 31.9991 2.16959C35.4866 2.16959 38.4869 4.76853 38.9788 8.21439C39.0564 8.7556 39.5207 9.14617 40.0517 9.14617C40.1022 9.14617 40.1543 9.14236 40.2061 9.13537C40.7992 9.05051 41.2113 8.50105 41.1268 7.90836Z" fill="#AC090A"/>
<path d="M56.794 20.0515L53.5397 14.6277C53.344 14.3006 52.9909 14.1011 52.6095 14.1011H49.491C48.8923 14.1011 48.4064 14.587 48.4064 15.1857C48.4064 15.7844 48.8923 16.2704 49.491 16.2704H51.9956L53.9481 19.5246H10.0506L12.0031 16.2704H13.152C13.7507 16.2704 14.2366 15.7844 14.2366 15.1857C14.2366 14.587 13.7507 14.1011 13.152 14.1011H11.3892C11.0078 14.1011 10.6547 14.3006 10.459 14.6277L7.20474 20.0515C7.00358 20.3871 6.99881 20.8043 7.19108 21.1444C7.38334 21.4844 7.74373 21.6948 8.13493 21.6948H55.8638C56.255 21.6948 56.615 21.4844 56.8076 21.1444C57.0002 20.8043 56.9951 20.3864 56.794 20.0515Z" fill="#AC090A"/>
<path d="M51.3869 10.0496C51.2349 9.80459 50.9925 9.63076 50.7122 9.56529L35.9248 6.10671C35.6448 6.04093 35.3499 6.08987 35.1052 6.24114C34.8611 6.39305 34.687 6.63553 34.6215 6.91582L33.5064 11.6828C33.3697 12.2659 33.732 12.8494 34.3155 12.9854C34.8986 13.1221 35.4827 12.7598 35.6188 12.1763L36.487 8.46603L49.1616 11.4308L47.17 19.9461C47.0334 20.5293 47.3957 21.1127 47.9791 21.2487C48.0627 21.2681 48.1456 21.2773 48.2276 21.2773C48.7202 21.2773 49.1661 20.9398 49.2821 20.44L51.521 10.8686C51.5871 10.5886 51.5388 10.2937 51.3869 10.0496Z" fill="#AC090A"/>
<path d="M32.573 12.6139L31.5847 4.2543C31.551 3.9686 31.4051 3.70769 31.1789 3.52972C30.9526 3.35176 30.6669 3.2704 30.3799 3.30409L12.2369 5.44858C11.6424 5.51913 11.2171 6.05811 11.2874 6.65334L12.9351 20.596C13.0006 21.148 13.4687 21.5538 14.0112 21.5538C14.0535 21.5538 14.097 21.551 14.1402 21.5462C14.7345 21.4757 15.1597 20.9367 15.0898 20.3415L13.5691 7.47516L29.5578 5.58555L30.4184 12.8678C30.4889 13.4628 31.0254 13.8854 31.6231 13.8181C32.2177 13.7481 32.6429 13.2088 32.573 12.6139Z" fill="#AC090A"/>
<path d="M41.1522 20.1977L38.9992 11.2441C38.9318 10.9647 38.7561 10.7229 38.511 10.5726C38.266 10.4235 37.9721 10.3768 37.6908 10.4436L20.2162 14.6461C19.6336 14.7859 19.2752 15.3719 19.415 15.9544L20.4911 20.4297C20.6309 21.0128 21.2169 21.3716 21.7991 21.2308C22.3816 21.091 22.7401 20.505 22.6003 19.9224L21.7775 16.5017L37.1429 12.807L39.0424 20.7055C39.1616 21.2028 39.6065 21.5365 40.0962 21.5365C40.1804 21.5365 40.2656 21.5267 40.3511 21.506C40.9336 21.3659 41.2921 20.7802 41.1522 20.1977Z" fill="#AC090A"/>
<path d="M56.9481 20.5549C56.9182 19.9784 56.4422 19.5259 55.8644 19.5259H8.13557C7.55781 19.5259 7.08176 19.9781 7.05188 20.5549L4.88229 62.8599C4.86703 63.1567 4.97445 63.4472 5.17911 63.6627C5.38409 63.8778 5.6682 64.0002 5.96565 64.0002H58.0334C58.3305 64.0002 58.6149 63.8781 58.8209 63.6627C59.0252 63.4472 59.1326 63.1571 59.1177 62.8599L56.9481 20.5549ZM7.10718 61.8306L9.16554 21.6952H54.8332L56.8915 61.8306H7.10718Z" fill="#AC090A"/>
<path d="M40.1351 23.8643C38.3405 23.8643 36.8809 25.3239 36.8809 27.1185C36.8809 28.9131 38.3405 30.3727 40.1351 30.3727C41.9297 30.3727 43.3893 28.9131 43.3893 27.1185C43.3893 25.3239 41.9297 23.8643 40.1351 23.8643ZM40.1351 28.2034C39.5367 28.2034 39.0505 27.7169 39.0505 27.1188C39.0505 26.5207 39.537 26.0342 40.1351 26.0342C40.7332 26.0342 41.2197 26.5207 41.2197 27.1188C41.2197 27.7169 40.7332 28.2034 40.1351 28.2034Z" fill="#AC090A"/>
<path d="M23.8641 23.8643C22.0695 23.8643 20.6099 25.3239 20.6099 27.1185C20.6099 28.9131 22.0695 30.3727 23.8641 30.3727C25.6587 30.3727 27.1183 28.9131 27.1183 27.1185C27.1183 25.3239 25.6587 23.8643 23.8641 23.8643ZM23.8641 28.2034C23.266 28.2034 22.7795 27.7169 22.7795 27.1188C22.7795 26.5207 23.266 26.0342 23.8641 26.0342C24.4622 26.0342 24.9487 26.5207 24.9487 27.1188C24.9487 27.7169 24.4622 28.2034 23.8641 28.2034Z" fill="#AC090A"/>
<path d="M40.1351 27.1184H40.0515C39.4528 27.1184 38.9669 27.6043 38.9669 28.203C38.9669 28.3511 38.9961 28.4926 39.0505 28.6213V34.169C39.0505 38.0566 35.8874 41.22 31.9995 41.22C28.1116 41.22 24.9486 38.0569 24.9486 34.169V28.2034C24.9486 27.6046 24.4627 27.1187 23.8639 27.1187C23.2652 27.1187 22.7793 27.6046 22.7793 28.2034V34.1693C22.7793 39.2534 26.9154 43.3896 31.9995 43.3896C37.0836 43.3896 41.2197 39.2534 41.2197 34.1693V28.2034C41.2197 27.6046 40.7338 27.1184 40.1351 27.1184Z" fill="#AC090A"/>
</g>
<defs>
<clipPath id="clip0">
<rect width="64" height="64" fill="white"/>
</clipPath>
</defs>
</svg>
