<svg width="64" height="64" viewBox="0 0 64 64" fill="none" xmlns="http://www.w3.org/2000/svg">
<path d="M43 12H39V9C39 7.14348 38.2625 5.36301 36.9497 4.05025C35.637 2.7375 33.8565 2 32 2C30.1435 2 28.363 2.7375 27.0503 4.05025C25.7375 5.36301 25 7.14348 25 9V12H21C20.7348 12 20.4804 12.1054 20.2929 12.2929C20.1054 12.4804 20 12.7348 20 13V35C20.0024 35.7949 20.3192 36.5566 20.8813 37.1187C21.4434 37.6808 22.2051 37.9976 23 38H36V36H23C22.7348 36 22.4804 35.8946 22.2929 35.7071C22.1054 35.5196 22 35.2652 22 35V34H36V32H22V14H25V17H27V14H37V17H39V14H42V17H44V13C44 12.7348 43.8946 12.4804 43.7071 12.2929C43.5196 12.1054 43.2652 12 43 12ZM37 12H27V9C27 7.67392 27.5268 6.40215 28.4645 5.46447C29.4021 4.52678 30.6739 4 32 4C33.3261 4 34.5979 4.52678 35.5355 5.46447C36.4732 6.40215 37 7.67392 37 9V12Z" fill="#AC090A"/>
<path d="M57 19H39C38.7348 19 38.4804 19.1054 38.2929 19.2929C38.1054 19.4804 38 19.7348 38 20V35C38.0024 35.7949 38.3192 36.5566 38.8813 37.1187C39.4434 37.6808 40.2051 37.9976 41 38H55C55.7949 37.9976 56.5566 37.6808 57.1187 37.1187C57.6808 36.5566 57.9976 35.7949 58 35V20C58 19.7348 57.8946 19.4804 57.7071 19.2929C57.5196 19.1054 57.2652 19 57 19ZM56 35C56 35.2652 55.8946 35.5196 55.7071 35.7071C55.5196 35.8946 55.2652 36 55 36H41C40.7348 36 40.4804 35.8946 40.2929 35.7071C40.1054 35.5196 40 35.2652 40 35V34H56V35ZM56 32H40V21H56V32Z" fill="#AC090A"/>
<path d="M48 30C49.3256 29.9984 50.5964 29.4711 51.5338 28.5338C52.4711 27.5964 52.9984 26.3256 53 25V23H51V25C51 25.7956 50.6839 26.5587 50.1213 27.1213C49.5587 27.6839 48.7956 28 48 28C47.2044 28 46.4413 27.6839 45.8787 27.1213C45.3161 26.5587 45 25.7956 45 25V23H43V25C43.0016 26.3256 43.5289 27.5964 44.4662 28.5338C45.4036 29.4711 46.6744 29.9984 48 30Z" fill="#AC090A"/>
<path d="M62.332 44.55C61.886 43.619 61.1059 42.8899 60.1469 42.5078C59.1878 42.1257 58.12 42.1187 57.156 42.488L48.226 45.738C48.0377 44.9917 47.6381 44.3156 47.0751 43.7907C46.5121 43.2659 45.8097 42.9146 45.052 42.779L32.989 40.652C30.3959 40.1958 27.7284 40.4292 25.254 41.329L23.7 41.9C22.2397 42.4345 20.86 43.1677 19.6 44.079L19.379 43.472C19.3343 43.3485 19.2657 43.235 19.1771 43.138C19.0886 43.041 18.9818 42.9624 18.8628 42.9066C18.7438 42.8509 18.6151 42.8192 18.4838 42.8132C18.3526 42.8073 18.2215 42.8273 18.098 42.872L6.821 46.972C6.69747 47.0167 6.58396 47.0853 6.48694 47.1739C6.38993 47.2625 6.31132 47.3693 6.2556 47.4882C6.19988 47.6072 6.16815 47.736 6.16221 47.8672C6.15627 47.9984 6.17625 48.1295 6.221 48.253L1.521 49.963L2.205 51.842L6.905 50.132L10.984 61.34L12.863 60.656L8.447 48.51L17.847 45.09L22.978 59.19L20.578 60.065L21.262 61.943L24.6 60.723C24.7236 60.6783 24.8373 60.6097 24.9344 60.5211C25.0314 60.4324 25.1101 60.3255 25.1658 60.2064C25.2216 60.0874 25.2533 59.9585 25.2591 59.8271C25.265 59.6958 25.2449 59.5646 25.2 59.441L24.858 58.501L27.158 57.663C28.604 57.1346 30.1452 56.9172 31.681 57.025L36.425 57.354C38.2399 57.4845 40.0618 57.2279 41.77 56.601L60.05 49.948C60.567 49.76 61.0397 49.4674 61.4386 49.0883C61.8374 48.7093 62.1537 48.2521 62.3678 47.7453C62.5819 47.2385 62.6891 46.693 62.6828 46.1428C62.6764 45.5927 62.5567 45.0498 62.331 44.548L62.332 44.55ZM60.494 47.033C60.384 47.2716 60.2278 47.4859 60.0343 47.6636C59.8408 47.8412 59.614 47.9787 59.367 48.068L41.087 54.722C39.6413 55.2516 38.0997 55.4687 36.564 55.359L31.82 55.03C30.0056 54.9032 28.1847 55.1598 26.476 55.783L24.17 56.622L20.315 46.03C21.5453 45.0698 22.9187 44.3086 24.385 43.774L25.937 43.209C28.0819 42.4288 30.3942 42.2264 32.642 42.622L44.7 44.749C44.9614 44.7916 45.2117 44.8857 45.4364 45.0258C45.6611 45.1659 45.8557 45.3492 46.0091 45.5651C46.1624 45.781 46.2713 46.0252 46.3294 46.2836C46.3876 46.5419 46.3939 46.8092 46.348 47.07C46.302 47.3308 46.2047 47.5799 46.0618 47.8028C45.9188 48.0257 45.733 48.218 45.5151 48.3685C45.2973 48.519 45.0517 48.6248 44.7926 48.6796C44.5336 48.7345 44.2662 48.7373 44.006 48.688L33.173 46.778L32.825 48.748L43.658 50.658C44.6179 50.8279 45.6069 50.6398 46.4374 50.1293C47.2678 49.6187 47.8822 48.8213 48.164 47.888L57.836 44.367C58.3256 44.1751 58.8688 44.1711 59.3612 44.3557C59.8536 44.5403 60.2603 44.9005 60.503 45.367C60.6207 45.6292 60.6808 45.9136 60.6792 46.201C60.6777 46.4884 60.6145 46.7721 60.494 47.033Z" fill="#AC090A"/>
</svg>
