<svg width="64" height="64" viewBox="0 0 64 64" fill="none" xmlns="http://www.w3.org/2000/svg">
<g clip-path="url(#clip0)">
<path d="M45.937 16.1868H36.875V9.49964C36.875 9.49814 36.8747 9.49664 36.8747 9.49514C36.8725 4.84452 33.0884 1.06177 28.4373 1.06177C26.5667 1.06177 24.8372 1.67439 23.4368 2.70839C22.0363 1.67439 20.3068 1.06177 18.4363 1.06177C13.7838 1.06177 9.99862 4.84689 9.99862 9.49939C9.99862 9.49977 9.99862 9.50014 9.99862 9.50064V16.1873H5.94375C5.94175 16.1873 5.93975 16.187 5.93775 16.187C5.93563 16.187 5.93375 16.1873 5.93175 16.1873H0.9375C0.69 16.1873 0.44875 16.2873 0.275 16.4623C0.1 16.636 0 16.8773 0 17.1248V33.4973C0 34.0148 0.42 34.4348 0.9375 34.4348C1.455 34.4348 1.875 34.0148 1.875 33.4973V18.0623H5.00025V56.6118L1.875 59.737V37.2471C1.875 36.7296 1.455 36.3096 0.9375 36.3096C0.42 36.3096 0 36.7296 0 37.2471V62.0009C0 62.0043 0.0005 62.0078 0.0005 62.0112C0.000875 62.0384 0.002 62.0655 0.004625 62.0925C0.00475 62.0942 0.005125 62.0958 0.00525 62.0974C0.026625 62.304 0.11625 62.505 0.2745 62.6633C0.28975 62.6785 0.305875 62.692 0.32175 62.706C0.32925 62.7125 0.336125 62.7197 0.34375 62.7259C0.36075 62.7399 0.378625 62.7524 0.396375 62.765C0.403625 62.7701 0.410375 62.7758 0.417625 62.7807C0.440625 62.7962 0.4645 62.81 0.4885 62.8232C0.491 62.8245 0.493375 62.8261 0.495875 62.8275C0.521125 62.841 0.546875 62.853 0.573 62.864C0.575 62.8648 0.57675 62.8659 0.57875 62.8667C0.60175 62.8762 0.62525 62.8843 0.648875 62.8919C0.654625 62.8938 0.66025 62.8962 0.666125 62.8979C0.683 62.903 0.700125 62.9067 0.71725 62.9108C0.730625 62.914 0.743625 62.9179 0.757 62.9205C0.76275 62.9217 0.768625 62.9222 0.774375 62.9232C0.828 62.9328 0.882375 62.9384 0.93725 62.9384H10.9373C10.9401 62.9384 10.9429 62.938 10.9458 62.938H28.4364C28.9541 62.938 29.3739 62.5183 29.3739 62.0005C29.3741 61.4827 28.9544 61.0629 28.4366 61.0629H11.8755V18.0618H20V23.2495C20 23.767 20.42 24.187 20.9375 24.187C21.4538 24.187 21.875 23.767 21.875 23.2495V18.0618H35V23.2495C35 23.767 35.42 24.187 35.9375 24.187C36.4538 24.187 36.875 23.767 36.875 23.2495V18.0618H44.9995V24.5003C44.9995 25.018 45.4193 25.4378 45.937 25.4378C46.4548 25.4378 46.8745 25.018 46.8745 24.5003V17.1243C46.8745 16.6065 46.4548 16.1868 45.937 16.1868ZM3.20025 61.0633L5.93775 58.3258L8.67513 61.0633H3.20025ZM10 59.7367L6.87525 56.6117V18.0621H10V59.7367ZM19.9996 9.49927C19.9996 9.50177 20 9.50414 20 9.50652V16.1868H11.8737V9.49964C11.8737 9.49939 11.8737 9.49902 11.8737 9.49877C11.874 5.88039 14.8178 2.93664 18.4363 2.93664C19.7638 2.93664 20.9996 3.33402 22.0335 4.01439C20.7673 5.49052 19.9996 7.40639 19.9996 9.49927ZM24.9988 9.49964V16.1869H21.875V9.49964C21.875 9.49802 21.8748 9.49639 21.8748 9.49477C21.8759 7.87964 22.4645 6.40014 23.4368 5.25614C24.4095 6.40064 24.9982 7.88114 24.9989 9.49714C24.9989 9.49802 24.9988 9.49877 24.9988 9.49964ZM35 16.1868H26.8738V9.50289C26.8738 9.50164 26.874 9.50052 26.874 9.49927C26.874 7.40639 26.1064 5.49064 24.8401 4.01439C25.874 3.33402 27.1099 2.93664 28.4374 2.93664C32.0559 2.93664 34.9999 5.88064 34.9999 9.49927C34.9999 9.50002 35 9.50089 35 9.50177V16.1868Z" fill="#AC090A"/>
<path d="M63.0628 34.813H57.7336C58.5229 33.8857 59.0006 32.6855 59.0006 31.3752C59.0006 28.4459 56.6175 26.0627 53.6881 26.0627C50.2716 26.0627 48.3069 28.2355 47.4907 29.8526C47.2681 29.8271 47.0421 29.8127 46.8127 29.8127C46.5835 29.8127 46.3576 29.8271 46.135 29.8526C45.3189 28.2355 43.354 26.0627 39.9375 26.0627C37.0081 26.0627 34.625 28.4459 34.625 31.3752C34.625 32.6855 35.1027 33.8857 35.892 34.813H30.563C30.0452 34.813 29.6255 35.2327 29.6255 35.7505V43.2505C29.6255 43.7682 30.0452 44.188 30.563 44.188H32.1255V62.0004C32.1255 62.5181 32.5452 62.9379 33.063 62.9379H60.5628C61.0805 62.9379 61.5003 62.5181 61.5003 62.0004V44.188H63.0628C63.5805 44.188 64.0003 43.7682 64.0003 43.2505V35.7505C64.0003 35.2327 63.5805 34.813 63.0628 34.813ZM46.8127 31.6877C48.7304 31.6877 50.3407 33.0235 50.7654 34.813H42.8601C43.2847 33.0235 44.8951 31.6877 46.8127 31.6877ZM40.8752 61.0629H34.0005V44.188H40.8752V61.0629ZM40.8752 42.313H31.5005V36.688H40.8752V42.313ZM40.9494 34.813H39.9422C39.9406 34.813 39.9391 34.8127 39.9375 34.8127C38.0421 34.8127 36.5 33.2706 36.5 31.3752C36.5 29.4797 38.0421 27.9377 39.9375 27.9377C42.4191 27.9377 43.7046 29.4141 44.2804 30.3811C42.5402 31.2051 41.2622 32.85 40.9494 34.813ZM50.8755 61.0629H42.7502V44.188H50.8755V61.0629ZM50.8755 42.313H42.7502V36.688H50.8755V42.313ZM49.348 30.3825C49.9256 29.4182 51.2146 27.9377 53.6881 27.9377C55.5836 27.9377 57.1256 29.4797 57.1256 31.3752C57.1256 33.2706 55.5836 34.8127 53.6881 34.8127C53.6865 34.8127 53.685 34.813 53.6832 34.813H52.676C52.3634 32.8511 51.0866 31.207 49.348 30.3825ZM59.6253 61.0629H52.7505V44.188H59.6253V61.0629ZM62.1253 42.313H52.7505V36.688H62.1253V42.313Z" fill="#AC090A"/>
</g>
<defs>
<clipPath id="clip0">
<rect width="64" height="64" fill="white"/>
</clipPath>
</defs>
</svg>
