<svg width="14" height="16" viewBox="0 0 14 16" fill="none" xmlns="http://www.w3.org/2000/svg">
<path d="M3.80289 3.79922C3.80289 3.64009 3.8661 3.48748 3.97862 3.37495C4.09115 3.26243 4.24376 3.19922 4.40289 3.19922H8.00289C9.27169 3.19922 10.1597 3.69602 10.8269 4.46962C11.4829 5.23122 11.8029 6.22642 11.8029 7.19922C11.8029 8.17202 11.5629 9.16722 10.9069 9.92882C10.2397 10.7024 9.27169 11.1992 8.00289 11.1992H4.25089L6.02689 12.9752C6.08584 13.0301 6.13312 13.0964 6.16591 13.17C6.19871 13.2436 6.21634 13.323 6.21776 13.4036C6.21918 13.4842 6.20436 13.5642 6.17419 13.6389C6.14401 13.7136 6.09909 13.7815 6.04212 13.8384C5.98514 13.8954 5.91728 13.9403 5.84257 13.9705C5.76786 14.0007 5.68783 14.0155 5.60727 14.0141C5.52671 14.0127 5.44726 13.995 5.37366 13.9622C5.30006 13.9295 5.23382 13.8822 5.17889 13.8232L2.37889 11.0232C2.32184 10.9662 2.27688 10.8982 2.2467 10.8234C2.21652 10.7486 2.20173 10.6685 2.20323 10.5878C2.20472 10.5072 2.22246 10.4276 2.2554 10.354C2.28833 10.2804 2.33577 10.2141 2.39489 10.1592L5.19489 7.55922C5.31158 7.45101 5.46649 7.39359 5.62552 7.39959C5.78455 7.40559 5.93468 7.47452 6.04289 7.59122C6.1511 7.70791 6.20852 7.86282 6.20252 8.02185C6.19652 8.18088 6.12758 8.33101 6.01089 8.43922L4.33089 9.99922H8.00289C8.93409 9.99922 9.49089 9.64642 9.92289 9.14482C10.3661 8.63122 10.6029 7.92642 10.6029 7.19922C10.6029 6.47202 10.3661 5.76722 9.92289 5.25362C9.49089 4.75202 8.93409 4.39922 8.00289 4.39922H4.40289C4.24376 4.39922 4.09115 4.336 3.97862 4.22348C3.8661 4.11096 3.80289 3.95835 3.80289 3.79922Z" fill="#780001"/>
</svg>
