<svg width="16" height="16" viewBox="0 0 16 16" fill="none" xmlns="http://www.w3.org/2000/svg">
<path d="M5.97663 11.9999C5.89737 12.5561 5.6201 13.065 5.19574 13.4332C4.77139 13.8014 4.22844 14.0041 3.66663 14.0041C3.10481 14.0041 2.56186 13.8014 2.13751 13.4332C1.71315 13.065 1.43588 12.5561 1.35663 11.9999H0.666626V3.99992C0.666626 3.82311 0.736864 3.65354 0.861888 3.52851C0.986912 3.40349 1.15648 3.33325 1.33329 3.33325H10.6666C10.8434 3.33325 11.013 3.40349 11.138 3.52851C11.2631 3.65354 11.3333 3.82311 11.3333 3.99992V5.33325H13.3333L15.3333 8.03725V11.9999H13.9766C13.8974 12.5561 13.6201 13.065 13.1957 13.4332C12.7714 13.8014 12.2284 14.0041 11.6666 14.0041C11.1048 14.0041 10.5619 13.8014 10.1375 13.4332C9.71315 13.065 9.43588 12.5561 9.35663 11.9999H5.97663ZM9.99996 4.66659H1.99996V10.0333C2.263 9.76472 2.58703 9.56371 2.94446 9.44733C3.3019 9.33095 3.68216 9.30266 4.05288 9.36485C4.4236 9.42704 4.77381 9.57788 5.0737 9.80452C5.37359 10.0312 5.61428 10.3269 5.77529 10.6666H9.55796C9.66996 10.4313 9.81996 10.2173 9.99996 10.0333V4.66659ZM11.3333 8.66659H14V8.47659L12.6613 6.66659H11.3333V8.66659ZM11.6666 12.6666C11.9319 12.6666 12.1864 12.5612 12.374 12.3736C12.5616 12.186 12.667 11.9316 12.667 11.6663C12.667 11.4009 12.5616 11.1465 12.374 10.9589C12.1864 10.7713 11.9319 10.6659 11.6666 10.6659C11.4013 10.6659 11.1469 10.7713 10.9593 10.9589C10.7717 11.1465 10.6663 11.4009 10.6663 11.6663C10.6663 11.9316 10.7717 12.186 10.9593 12.3736C11.1469 12.5612 11.4013 12.6666 11.6666 12.6666ZM4.66663 11.6666C4.66663 11.5353 4.64076 11.4052 4.59051 11.2839C4.54025 11.1626 4.46659 11.0523 4.37373 10.9595C4.28087 10.8666 4.17063 10.793 4.04931 10.7427C3.92798 10.6925 3.79795 10.6666 3.66663 10.6666C3.5353 10.6666 3.40527 10.6925 3.28394 10.7427C3.16262 10.793 3.05238 10.8666 2.95952 10.9595C2.86666 11.0523 2.793 11.1626 2.74275 11.2839C2.69249 11.4052 2.66663 11.5353 2.66663 11.6666C2.66663 11.9318 2.77198 12.1862 2.95952 12.3737C3.14706 12.5612 3.40141 12.6666 3.66663 12.6666C3.93184 12.6666 4.1862 12.5612 4.37373 12.3737C4.56127 12.1862 4.66663 11.9318 4.66663 11.6666Z" fill="#780001"/>
</svg>
