<svg width="14" height="16" viewBox="0 0 14 16" fill="none" xmlns="http://www.w3.org/2000/svg">
<path d="M7 1L1 3V9C1 12.3141 3.68594 15 7 15C10.3141 15 13 12.3141 13 9V3L7 1ZM11.875 9C11.875 11.6922 9.69219 13.875 7 13.875C4.30781 13.875 2.125 11.6922 2.125 9V3.84375L7 2.125L11.875 3.84375V9Z" fill="#780001"/>
<path d="M4.91173 7.42392C4.8596 7.37155 4.79763 7.32999 4.72939 7.30163C4.66114 7.27328 4.58797 7.25868 4.51407 7.25868C4.44018 7.25868 4.367 7.27328 4.29876 7.30163C4.23052 7.32999 4.16855 7.37155 4.11642 7.42392C4.06404 7.47606 4.02249 7.53803 3.99413 7.60627C3.96577 7.67451 3.95117 7.74768 3.95117 7.82158C3.95117 7.89548 3.96577 7.96865 3.99413 8.03689C4.02249 8.10513 4.06404 8.1671 4.11642 8.21924L6.1383 10.2411L6.17111 10.2739C6.22042 10.3233 6.279 10.3625 6.34348 10.3893C6.40796 10.416 6.47708 10.4298 6.54689 10.4298C6.6167 10.4298 6.68582 10.416 6.7503 10.3893C6.81478 10.3625 6.87336 10.3233 6.92267 10.2739L10.4149 6.78174C10.4643 6.73242 10.5035 6.67385 10.5302 6.60937C10.557 6.54489 10.5707 6.47576 10.5707 6.40596C10.5707 6.33615 10.557 6.26703 10.5302 6.20255C10.5035 6.13807 10.4643 6.07949 10.4149 6.03018L10.3711 5.98643C10.3218 5.93702 10.2632 5.89782 10.1987 5.87108C10.1343 5.84433 10.0651 5.83057 9.99533 5.83057C9.92552 5.83057 9.8564 5.84433 9.79192 5.87108C9.72744 5.89782 9.66887 5.93702 9.61955 5.98643L6.54611 9.0583L4.91173 7.42392Z" fill="#780001"/>
</svg>
