<svg width="14" height="16" viewBox="0 0 14 16" fill="none" xmlns="http://www.w3.org/2000/svg">
<path d="M12.8422 8.33917C13.1047 7.9923 13.25 7.5673 13.25 7.12511C13.25 6.42355 12.8578 5.75948 12.2266 5.38917C12.0641 5.29385 11.879 5.24368 11.6906 5.24386H7.94375L8.0375 3.32355C8.05938 2.85948 7.89531 2.41886 7.57656 2.08292C7.42013 1.91734 7.23141 1.7856 7.02206 1.69584C6.8127 1.60607 6.58716 1.5602 6.35938 1.56105C5.54688 1.56105 4.82812 2.10792 4.6125 2.89073L3.27031 7.75011H1.25C0.973437 7.75011 0.75 7.97355 0.75 8.25011V13.9376C0.75 14.2142 0.973437 14.4376 1.25 14.4376H10.6453C10.7891 14.4376 10.9297 14.4095 11.0594 14.3532C11.8031 14.036 12.2828 13.3095 12.2828 12.5032C12.2828 12.3064 12.2547 12.1126 12.1984 11.9251C12.4609 11.5782 12.6062 11.1532 12.6062 10.711C12.6062 10.5142 12.5781 10.3204 12.5219 10.1329C12.7844 9.78605 12.9297 9.36105 12.9297 8.91886C12.9266 8.72198 12.8984 8.52667 12.8422 8.33917ZM1.875 13.3126V8.87511H3.14062V13.3126H1.875ZM11.8188 7.79699L11.4766 8.09386L11.6938 8.49074C11.7653 8.62147 11.8024 8.76827 11.8016 8.9173C11.8016 9.17511 11.6891 9.42042 11.4953 9.58917L11.1531 9.88605L11.3703 10.2829C11.4419 10.4137 11.479 10.5605 11.4781 10.7095C11.4781 10.9673 11.3656 11.2126 11.1719 11.3814L10.8297 11.6782L11.0469 12.0751C11.1184 12.2058 11.1555 12.3526 11.1547 12.5017C11.1547 12.8517 10.9484 13.1673 10.6297 13.311H4.14062V8.82511L5.69531 3.1923C5.7354 3.04792 5.82146 2.92055 5.94044 2.82948C6.05943 2.73841 6.20485 2.6886 6.35469 2.68761C6.47344 2.68761 6.59062 2.72198 6.68437 2.7923C6.83906 2.90792 6.92188 3.08292 6.9125 3.26886L6.7625 6.36886H11.675C11.9531 6.53917 12.125 6.82667 12.125 7.12511C12.125 7.38292 12.0125 7.62667 11.8188 7.79699Z" fill="#780001"/>
</svg>
